# xmcd
#
# Track frame offsets:
# 150
# 17910
# 35698
# 53458
#
# Disc length: 947 seconds
#
#
# Revision: 0
# Processed by: cddbd v1.5.1PL2 Copyright (c) Steve Scherf et al.
# Submitted via: FreeRIP 2.945 
#
DISCID=2903b104
DTITLE=mihimaru GT - ??????
DYEAR=2006
DGENRE=Ballad
TTITLE0=??????
TTITLE1=The 7 Wonders
TTITLE2=?????? (Instrumental)
TTITLE3=The 7 Wonders (Instrumental)
EXTD=YEAR: 2006
EXTT0=
EXTT1=
EXTT2=
EXTT3=
PLAYORDER=
